<svg width="33" height="33" viewBox="0 0 33 33" fill="none" xmlns="http://www.w3.org/2000/svg">
<path d="M32.6333 24.75L23.3833 15.5L26 12.8833L19.75 6.63333L17.1333 9.25L7.88333 0L0 7.88333L9.25 17.1333L1.31667 25.0667V31.3167H7.56667L15.5 23.3833L24.75 32.6333L32.6333 24.75ZM11.6167 14.7667L4.71667 7.88333L7.88333 4.71667L10 6.83333L8.01667 8.81667L10.3667 11.1667L12.35 9.18333L14.7667 11.6L11.6167 14.7667ZM17.8667 21.0167L21.0333 17.85L23.45 20.2667L21.4667 22.25L23.8167 24.6L25.8 22.6167L27.9167 24.7333L24.75 27.9L17.8667 21.0167ZM21.5383 4.855L25.7683 0.623333L32.015 6.87L27.785 11.1017L21.5383 4.855Z" fill="#F9995D"/>
</svg>
